<svg width="20" height="21" viewBox="0 0 20 21" fill="none" xmlns="http://www.w3.org/2000/svg">
<path fill-rule="evenodd" clip-rule="evenodd" d="M5.00008 6.74774C5.46032 6.74774 5.83341 7.12084 5.83341 7.58107V15.0811C5.83341 15.5413 5.46032 15.9144 5.00008 15.9144C4.53984 15.9144 4.16675 15.5413 4.16675 15.0811V7.58107C4.16675 7.12084 4.53984 6.74774 5.00008 6.74774Z" fill="#35383F"/>
<path d="M9.16667 7.58077C9.1665 7.12067 8.79347 6.74774 8.33333 6.74774C7.8731 6.74774 7.5 7.12084 7.5 7.58107V15.0811C7.5 15.5413 7.8731 15.9144 8.33333 15.9144C8.79357 15.9144 9.16667 15.5413 9.16667 15.0811V10.9144C9.16667 9.5337 10.286 8.41441 11.6667 8.41441C13.0474 8.41441 14.1667 9.5337 14.1667 10.9144V15.0811C14.1667 15.5413 14.5398 15.9144 15 15.9144C15.4602 15.9144 15.8333 15.5413 15.8333 15.0811V10.9144C15.8333 8.61322 13.9679 6.74774 11.6667 6.74774C10.7287 6.74774 9.86305 7.0577 9.16667 7.58077Z" fill="#35383F"/>
<path d="M5.83341 5.08108C5.83341 5.54131 5.46032 5.91441 5.00008 5.91441C4.53984 5.91441 4.16675 5.54131 4.16675 5.08108C4.16675 4.62084 4.53984 4.24774 5.00008 4.24774C5.46032 4.24774 5.83341 4.62084 5.83341 5.08108Z" fill="#35383F"/>
</svg>
